<svg xmlns="http://www.w3.org/2000/svg" width="1200" height="320" viewBox="0 0 1200 320" role="img" aria-labelledby="title desc">
<title id="title">Aster Clear next steps banner</title><desc id="desc">Aster. Turn failing tests into clear next steps.</desc>
<rect width="1200" height="320" fill="#f2efe8"/><rect x="1.5" y="1.5" width="1197" height="317" fill="none" stroke="#c8c4d0" stroke-width="3"/>
<rect x="48" y="69" width="128" height="128" rx="4" fill="#ebe9f0" stroke="#c8c4d0"/>
<g transform="translate(53.2 78.9) scale(4.9)" color="#5d63b3"><path d="M12 3.7 19.65 18.4 12 15.7l-7.65 2.7L12 3.7Z" fill="none" stroke="currentColor" stroke-width="1.85" stroke-linejoin="round"/><path d="M12 6.7c.35 2.13 1.45 3.25 3.55 3.6-2.1.35-3.2 1.47-3.55 3.6-.35-2.13-1.45-3.25-3.55-3.6 2.1-.35 3.2-1.47 3.55-3.6Z" fill="currentColor"/></g>
<text x="208" y="108" fill="#242333" font-family="Inter,Arial,sans-serif" font-size="60" font-weight="760" letter-spacing="-2">Aster</text>
<text x="210" y="153" fill="#59576a" font-family="Inter,Arial,sans-serif" font-size="20">Turn failing tests into clear next steps.</text>
<text x="210" y="197" fill="#464b91" font-family="ui-monospace,SFMono-Regular,Menlo,monospace" font-size="14" font-weight="700" letter-spacing="1">PROW + TESTGRID FAILURE ANALYSIS</text>
<line x1="700" y1="48" x2="700" y2="230" stroke="#5d63b3" stroke-width="3"/><line x1="48" y1="266" x2="1152" y2="266" stroke="#5d63b3" stroke-width="3"/><line x1="776" y1="133" x2="865" y2="133" stroke="#5d63b3" stroke-width="3"/><line x1="881" y1="133" x2="970" y2="133" stroke="#5d63b3" stroke-width="3"/><line x1="986" y1="133" x2="1075" y2="133" stroke="#5d63b3" stroke-width="3"/><rect x="760" y="125" width="16" height="16" fill="#5d63b3"/><text x="768" y="174" text-anchor="middle" fill="#242333" font-family="Inter,Arial,sans-serif" font-size="12.5" font-weight="700" letter-spacing=".8">FAILURE</text><text x="768" y="198" text-anchor="middle" fill="#59576a" font-family="ui-monospace,SFMono-Regular,Menlo,monospace" font-size="11.5">job + test</text><rect x="865" y="125" width="16" height="16" fill="#5d63b3"/><text x="873" y="174" text-anchor="middle" fill="#242333" font-family="Inter,Arial,sans-serif" font-size="12.5" font-weight="700" letter-spacing=".8">EVIDENCE</text><text x="873" y="198" text-anchor="middle" fill="#59576a" font-family="ui-monospace,SFMono-Regular,Menlo,monospace" font-size="11.5">logs + artifacts</text><rect x="970" y="125" width="16" height="16" fill="#5d63b3"/><text x="978" y="174" text-anchor="middle" fill="#242333" font-family="Inter,Arial,sans-serif" font-size="12.5" font-weight="700" letter-spacing=".8">EXPLAIN</text><text x="978" y="198" text-anchor="middle" fill="#59576a" font-family="ui-monospace,SFMono-Regular,Menlo,monospace" font-size="11.5">likely cause</text><rect x="1075" y="125" width="16" height="16" fill="#0b7355"/><text x="1083" y="174" text-anchor="middle" fill="#242333" font-family="Inter,Arial,sans-serif" font-size="12.5" font-weight="700" letter-spacing=".8">REVIEW</text><text x="1083" y="198" text-anchor="middle" fill="#59576a" font-family="ui-monospace,SFMono-Regular,Menlo,monospace" font-size="11.5">issue or fix</text></svg>